<svg width="320" height="320" viewBox="0 0 320 320" fill="none" xmlns="http://www.w3.org/2000/svg">
<g id="icon" clip-path="url(#clip0_2_27)">
<g id="fork">
<mask id="path-1-outside-1_2_27" maskUnits="userSpaceOnUse" x="88" y="45" width="232" height="231" fill="black">
<rect fill="white" x="88" y="45" width="232" height="231"/>
<path d="M182.273 195.876C182.329 193.687 183.225 191.615 184.829 190.123C195.544 180.158 238.254 140.466 263.097 117.785C277.091 105.009 298.732 90.9479 303.807 86.1182C321.553 68.1639 297.208 41.8821 280.355 62.6021C263.502 83.3221 261.157 87.0784 248.375 102.366C223.26 130.512 184.523 171.199 174.604 181.585C173.074 183.187 170.968 184.049 168.753 184.049C151.266 184.053 142.48 185.98 136.232 193.437C129.438 201.528 99.8041 236.761 99.5636 237.047C99.5562 237.056 99.5582 237.054 99.5511 237.063C94.8827 243.042 101.854 247.517 105.958 243.035L143.771 204.706C144.551 203.916 145.826 203.912 146.611 204.699L148.887 206.981C149.669 207.765 149.665 209.035 148.879 209.814L112.354 246.027C107.237 251.158 114.06 258.854 119.603 252.441L155.71 216.235C156.491 215.452 157.761 215.452 158.542 216.235L161.687 219.389C162.466 220.169 162.466 221.433 161.687 222.213L124.72 259.282C120.456 263.558 125.429 270.165 130.689 265.268C136.659 259.71 168.639 232.773 172.476 228.497C180.158 219.938 181.915 209.942 182.273 195.876Z"/>
</mask>
<path d="M182.273 195.876C182.329 193.687 183.225 191.615 184.829 190.123C195.544 180.158 238.254 140.466 263.097 117.785C277.091 105.009 298.732 90.9479 303.807 86.1182C321.553 68.1639 297.208 41.8821 280.355 62.6021C263.502 83.3221 261.157 87.0784 248.375 102.366C223.26 130.512 184.523 171.199 174.604 181.585C173.074 183.187 170.968 184.049 168.753 184.049C151.266 184.053 142.48 185.98 136.232 193.437C129.438 201.528 99.8041 236.761 99.5636 237.047C99.5562 237.056 99.5582 237.054 99.5511 237.063C94.8827 243.042 101.854 247.517 105.958 243.035L143.771 204.706C144.551 203.916 145.826 203.912 146.611 204.699L148.887 206.981C149.669 207.765 149.665 209.035 148.879 209.814L112.354 246.027C107.237 251.158 114.06 258.854 119.603 252.441L155.71 216.235C156.491 215.452 157.761 215.452 158.542 216.235L161.687 219.389C162.466 220.169 162.466 221.433 161.687 222.213L124.72 259.282C120.456 263.558 125.429 270.165 130.689 265.268C136.659 259.71 168.639 232.773 172.476 228.497C180.158 219.938 181.915 209.942 182.273 195.876Z" stroke="white" stroke-width="18" mask="url(#path-1-outside-1_2_27)"/>
</g>
<path id="file" d="M204 142.5V83.1245C204 81.7669 203.448 80.4677 202.471 79.5253L149.453 28.4008C148.521 27.5021 147.277 27 145.982 27L24 27C12.9543 27 4 35.9543 4 47V271C4 282.046 12.9543 291 24 291H184C195.046 291 204 282.046 204 271V180" stroke="white" stroke-width="10" stroke-linecap="round"/>
<path id="file_2" d="M201.522 81H149C148.448 81 148 80.5523 148 80V29.3535C148 28.4713 149.059 28.0213 149.694 28.6336L202.216 79.2802C202.864 79.9047 202.422 81 201.522 81Z" stroke="white" stroke-width="10" stroke-linecap="round"/>
<g id="lines">
<path fill-rule="evenodd" clip-rule="evenodd" d="M38 79C35.7909 79 34 80.7909 34 83C34 85.2091 35.7909 87 38 87H114C116.209 87 118 85.2091 118 83C118 80.7909 116.209 79 114 79H38ZM38 176C35.7909 176 34 177.791 34 180C34 182.209 35.7909 184 38 184H114C116.209 184 118 182.209 118 180C118 177.791 116.209 176 114 176H38ZM34 133C34 130.791 35.7909 129 38 129H114C116.209 129 118 130.791 118 133C118 135.209 116.209 137 114 137H38C35.7909 137 34 135.209 34 133ZM38 225C35.7909 225 34 226.791 34 229C34 231.209 35.7909 233 38 233H76C78.2091 233 80 231.209 80 229C80 226.791 78.2091 225 76 225H38Z" fill="white"/>
<path d="M36 83C36 81.8954 36.8954 81 38 81V77C34.6863 77 32 79.6863 32 83H36ZM38 85C36.8954 85 36 84.1046 36 83H32C32 86.3137 34.6863 89 38 89V85ZM114 85H38V89H114V85ZM116 83C116 84.1046 115.105 85 114 85V89C117.314 89 120 86.3137 120 83H116ZM114 81C115.105 81 116 81.8954 116 83H120C120 79.6863 117.314 77 114 77V81ZM38 81H114V77H38V81ZM36 180C36 178.895 36.8954 178 38 178V174C34.6863 174 32 176.686 32 180H36ZM38 182C36.8954 182 36 181.105 36 180H32C32 183.314 34.6863 186 38 186V182ZM114 182H38V186H114V182ZM116 180C116 181.105 115.105 182 114 182V186C117.314 186 120 183.314 120 180H116ZM114 178C115.105 178 116 178.895 116 180H120C120 176.686 117.314 174 114 174V178ZM38 178H114V174H38V178ZM38 127C34.6863 127 32 129.686 32 133H36C36 131.895 36.8954 131 38 131V127ZM114 127H38V131H114V127ZM120 133C120 129.686 117.314 127 114 127V131C115.105 131 116 131.895 116 133H120ZM114 139C117.314 139 120 136.314 120 133H116C116 134.105 115.105 135 114 135V139ZM38 139H114V135H38V139ZM32 133C32 136.314 34.6863 139 38 139V135C36.8954 135 36 134.105 36 133H32ZM36 229C36 227.895 36.8954 227 38 227V223C34.6863 223 32 225.686 32 229H36ZM38 231C36.8954 231 36 230.105 36 229H32C32 232.314 34.6863 235 38 235V231ZM76 231H38V235H76V231ZM78 229C78 230.105 77.1046 231 76 231V235C79.3137 235 82 232.314 82 229H78ZM76 227C77.1046 227 78 227.895 78 229H82C82 225.686 79.3137 223 76 223V227ZM38 227H76V223H38V227Z" fill="white"/>
</g>
</g>
<defs>
<clipPath id="clip0_2_27">
<rect width="320" height="320" fill="white"/>
</clipPath>
</defs>
</svg>
